<?xml version="1.0" standalone="no"?>
<!DOCTYPE svg PUBLIC "-//W3C//DTD SVG 20010904//EN"
 "http://www.w3.org/TR/2001/REC-SVG-20010904/DTD/svg10.dtd">
<svg version="1.0" xmlns="http://www.w3.org/2000/svg"
 width="756.000000pt" height="756.000000pt" viewBox="0 0 756.000000 756.000000"
 preserveAspectRatio="xMidYMid meet">
<metadata>
Created by potrace 1.11, written by Peter Selinger 2001-2013
</metadata>
<g transform="translate(0.000000,756.000000) scale(0.100000,-0.100000)"
fill="#000000" stroke="none">
<path d="M0 3780 l0 -3780 3780 0 3780 0 0 3780 0 3780 -3780 0 -3780 0 0
-3780z m3992 2992 c108 -8 123 -12 202 -50 47 -23 93 -42 103 -42 25 0 132
-52 168 -82 17 -14 63 -42 103 -63 51 -26 88 -56 125 -97 28 -33 80 -87 115
-120 34 -34 72 -77 84 -97 12 -20 46 -62 75 -94 64 -70 98 -134 118 -220 8
-35 26 -89 40 -120 14 -30 28 -79 31 -109 3 -29 15 -80 27 -113 19 -54 22 -81
21 -270 0 -201 -1 -213 -25 -275 -14 -36 -31 -92 -37 -125 -7 -33 -32 -100
-57 -150 -25 -49 -45 -96 -45 -103 0 -21 -40 -94 -77 -140 -20 -24 -48 -69
-63 -101 -15 -31 -50 -82 -77 -112 -26 -30 -66 -81 -88 -113 -22 -33 -62 -76
-88 -95 -27 -20 -74 -61 -105 -92 -32 -31 -77 -69 -102 -84 -25 -15 -65 -46
-90 -70 -25 -23 -61 -53 -81 -66 -106 -70 -242 -208 -284 -289 -22 -43 -52
-169 -60 -254 -4 -37 -8 -165 -8 -285 l-2 -216 -36 -75 c-46 -97 -111 -162
-209 -209 -72 -35 -79 -36 -185 -36 -106 0 -113 1 -185 36 -97 47 -162 112
-209 209 l-36 75 -2 304 c-1 241 2 313 13 350 8 25 19 83 24 128 5 47 20 108
35 145 15 35 33 90 41 122 18 74 63 160 114 217 22 24 40 48 40 52 0 20 82
126 121 157 24 19 73 65 108 103 35 37 80 77 100 87 20 11 56 38 81 61 25 23
63 53 85 67 22 15 63 47 91 72 28 25 80 69 114 99 35 30 78 80 98 110 19 31
45 67 57 81 29 33 103 170 120 223 7 23 21 62 30 87 22 59 22 191 1 242 -9 21
-21 61 -27 90 -15 68 -24 86 -84 155 -95 108 -147 153 -228 194 -78 40 -87 42
-189 47 l-108 5 -67 -44 c-89 -56 -127 -92 -170 -159 -19 -30 -47 -68 -63 -85
-15 -16 -44 -61 -65 -99 -34 -62 -38 -78 -45 -175 -5 -66 -16 -127 -29 -162
-62 -164 -209 -273 -387 -286 -271 -21 -510 246 -454 507 6 30 15 100 19 155
9 108 14 126 67 227 18 37 34 73 34 81 0 25 59 131 96 172 19 22 46 60 59 85
13 25 43 68 68 95 24 28 56 70 72 95 37 61 102 128 147 151 20 10 63 42 95 70
32 28 92 67 133 87 41 19 92 48 114 64 72 52 140 71 265 74 62 2 116 6 120 9
6 7 67 4 293 -13z m-256 -4911 c52 -1 68 -6 120 -40 43 -28 65 -50 77 -77 53
-123 66 -288 33 -407 -17 -61 -26 -74 -73 -115 l-53 -46 0 -115 1 -116 31 -20
c69 -44 73 -58 73 -248 -1 -244 -21 -297 -133 -354 -34 -17 -77 -44 -94 -58
-25 -21 -38 -25 -62 -21 -33 6 -76 47 -76 72 0 8 -4 14 -10 14 -5 0 -10 -6
-10 -14 0 -27 -72 -76 -112 -76 -39 0 -98 39 -98 66 0 20 -8 18 -43 -12 -24
-20 -37 -24 -60 -20 -41 8 -57 23 -79 73 -10 24 -28 47 -38 53 -11 6 -30 30
-42 53 -20 37 -22 56 -22 157 1 145 21 225 74 302 40 56 40 56 40 153 l0 97
-49 47 c-56 53 -79 111 -88 226 -14 182 60 341 191 407 43 22 55 23 243 22
109 -1 225 -2 259 -3z"/>
</g>
</svg>
